<svg width="913" height="349" viewBox="0 0 913 349" fill="none" xmlns="http://www.w3.org/2000/svg">
<path fill-rule="evenodd" clip-rule="evenodd" d="M138.864 195.318C138.772 195.364 138.681 195.411 138.589 195.459C138.498 195.507 138.407 195.556 138.316 195.605L138.864 195.318ZM140.738 194.508C141.594 195.206 146.536 199.475 151.342 208.648C156.138 217.805 156.84 224.291 156.928 225.41C164.023 220.399 166.485 210.787 162.344 202.882C158.203 194.976 148.897 191.528 140.738 194.508ZM137.697 195.959C138.085 196.258 143.256 200.352 148.407 210.186C153.539 219.983 153.976 226.552 154.004 227.085C145.57 230.906 135.517 227.52 131.166 219.214C126.815 210.909 129.755 200.718 137.697 195.959Z" fill="#399558"/>
<rect x="164.66" y="202.841" width="2.07039" height="35.1967" rx="1" transform="rotate(-117.647 164.66 202.841)" fill="#399558"/>
<path d="M720.476 131.449L719.288 141.954C719.288 141.954 719.289 141.954 719.289 141.954C720.377 142.348 721.017 142.909 721.103 142.987L727.2 148.614C727.532 148.915 730.559 151.493 733.447 148.363C736.411 145.151 733.329 142.239 733.197 142.116L723.044 132.747C723.039 132.742 722.129 131.942 720.476 131.449C720.476 131.449 720.476 131.449 720.476 131.449Z" fill="#399558"/>
<path d="M744.712 202.369L747.46 192.874L739.124 185.18L736.376 194.676L744.712 202.369Z" fill="#399558"/>
<path d="M713.494 173.559L714.726 162.664L708.369 156.798C708.345 156.775 707.17 155.656 706.751 153.705L705.356 166.049L713.494 173.559Z" fill="#399558"/>
<path d="M746.532 204.049L747.045 204.522C747.077 204.553 748.516 205.909 750.295 205.853C751.346 205.82 752.354 205.288 753.292 204.272C754.23 203.255 754.679 202.207 754.628 201.157C754.541 199.38 753.075 198.055 753.06 198.041L749.279 194.553L746.532 204.049Z" fill="#399558"/>
<path d="M706.488 136.342C705.448 137.254 704.405 138.275 703.368 139.398C691.141 152.648 699.959 161.068 700.341 161.42L703.34 164.188L703.341 164.188L706.488 136.342C706.488 136.342 706.488 136.342 706.488 136.342Z" fill="#399558"/>
<path d="M708.933 134.409L707.25 149.292C707.749 148.105 708.575 146.802 709.866 145.403C712.683 142.351 715.219 141.558 717.11 141.57L718.295 131.085C715.412 130.947 712.205 132.083 708.933 134.409Z" fill="#399558"/>
<path d="M734.561 193.002L737.309 183.506L728.973 175.812L726.225 185.308L734.561 193.002Z" fill="#399558"/>
<path d="M716.739 164.522L716.738 164.522L715.507 175.417L715.507 175.417L724.408 183.631L727.155 174.135L716.739 164.522Z" fill="#399558"/>
<path d="M36.0429 341.83L40.6551 332.145C40.6549 332.145 40.6548 332.145 40.6546 332.145C39.7406 331.407 39.3127 330.658 39.256 330.555L35.2668 323.141C35.0481 322.743 32.9962 319.27 29.1913 321.317C25.2861 323.418 27.2801 327.231 27.3668 327.392L34.0089 339.736C34.0123 339.743 34.6205 340.811 36.0428 341.83C36.0428 341.83 36.0429 341.83 36.0429 341.83Z" fill="#399558"/>
<path d="M36.2364 265.787L30.4618 273.988L35.9156 284.123L41.6902 275.922L36.2364 265.787Z" fill="#399558"/>
<path d="M56.6605 303.743L51.8777 313.787L56.0365 321.516C56.0523 321.545 56.8089 323.007 56.566 325.017L61.9846 313.637L56.6605 303.743Z" fill="#399558"/>
<path d="M35.0456 263.574L34.7098 262.95C34.6888 262.91 33.7562 261.134 32.0322 260.599C31.0131 260.284 29.8702 260.461 28.6343 261.126C27.3985 261.791 26.6209 262.647 26.3229 263.672C25.8191 265.405 26.7878 267.161 26.7974 267.179L29.271 271.775L35.0456 263.574Z" fill="#399558"/>
<path d="M51.0789 341.759C52.3777 341.229 53.7165 340.594 55.0819 339.859C71.1906 331.191 65.5146 320.199 65.265 319.735L63.3026 316.088L63.3024 316.088L51.0786 341.759C51.0787 341.759 51.0788 341.759 51.0789 341.759Z" fill="#399558"/>
<path d="M48.0951 342.806L54.6284 329.085C53.758 330.06 52.5346 331.036 50.8338 331.951C47.1228 333.948 44.4276 333.87 42.6176 333.234L38.0152 342.9C40.7355 343.986 44.1869 343.956 48.0951 342.806Z" fill="#399558"/>
<path d="M42.8772 278.128L37.1027 286.329L42.5565 296.465L48.3311 288.264L42.8772 278.128Z" fill="#399558"/>
<path d="M50.5604 311.339L50.5606 311.34L55.3433 301.295L55.3432 301.295L49.5203 290.474L43.7457 298.675L50.5604 311.339Z" fill="#399558"/>
<path d="M238.388 50.9003L248.451 52.3727C248.451 52.3725 248.451 52.3724 248.452 52.3722C248.865 51.338 249.424 50.7411 249.501 50.6608L255.103 44.9751C255.403 44.6657 257.977 41.8361 255.059 38.9608C252.064 36.0099 249.166 38.8819 249.044 39.0054L239.717 48.4723C239.712 48.4771 238.914 49.3266 238.388 50.9001C238.388 50.9002 238.388 50.9002 238.388 50.9003Z" fill="#399558"/>
<path d="M307.338 29.828L298.295 26.8877L290.636 34.6609L299.679 37.6012L307.338 29.828Z" fill="#399558"/>
<path d="M278.656 58.9379L268.22 57.4111L262.38 63.3385C262.357 63.3611 261.245 64.4549 259.356 64.7965L271.18 66.5262L278.656 58.9379Z" fill="#399558"/>
<path d="M309.01 28.131L309.482 27.6525C309.513 27.6221 310.861 26.281 310.864 24.5696C310.865 23.5582 310.385 22.572 309.437 21.6382C308.49 20.7043 307.496 20.2392 306.484 20.2555C304.774 20.2832 303.453 21.6517 303.44 21.6653L299.967 25.1906L309.01 28.131Z" fill="#399558"/>
<path d="M242.654 64.5037C243.497 65.5323 244.447 66.5677 245.494 67.5995C257.848 79.7722 266.221 71.5583 266.572 71.2026L269.328 68.4057L269.328 68.4054L242.654 64.5035C242.654 64.5036 242.654 64.5036 242.654 64.5037Z" fill="#399558"/>
<path d="M240.871 62.0923L255.128 64.1778C254.002 63.6615 252.776 62.8257 251.472 61.5405C248.626 58.7362 247.943 56.2727 248.013 54.4551L237.97 52.986C237.746 55.754 238.738 58.8727 240.871 62.0923Z" fill="#399558"/>
<path d="M298.013 39.2933L288.969 36.3529L281.31 44.1262L290.354 47.0665L298.013 39.2933Z" fill="#399558"/>
<path d="M270.07 55.5339L270.069 55.5343L280.506 57.0609L280.506 57.0608L288.683 48.7614L279.64 45.8211L270.07 55.5339Z" fill="#399558"/>
<path d="M75.6076 49.6504C75.3883 49.212 75.1596 48.8022 74.9117 48.402L50.494 50.4147C48.9598 54.0175 48.9601 58.2587 50.8475 62.0327L51.8579 64.0532L81.5938 61.573L75.6266 49.6409L75.6076 49.6504Z" fill="#399558"/>
<path d="M79.9034 89.1961C78.9504 89.6727 77.9688 90.0445 76.9585 90.3114L75.9546 106.17C75.9058 106.94 76.71 107.473 77.3998 107.128L95.9736 97.8391C96.6387 97.5064 96.721 96.5901 96.1258 96.1443L83.5154 86.6988C82.4481 87.6614 81.2568 88.5193 79.9034 89.1961Z" fill="#399558"/>
<path d="M57.0123 43.4542C54.7631 44.579 52.9714 46.2375 51.6849 48.1914L73.3292 46.398C69.2402 42.0332 62.6162 40.6517 57.0123 43.4542Z" fill="#399558"/>
<path d="M60.5214 81.3582C64.0292 87.9913 72.2259 90.6594 78.9544 87.2945C82.3853 85.5787 84.7964 82.6335 85.9112 79.2405L60.5214 81.3582Z" fill="#399558"/>
<path d="M85.1327 68.7108L82.5971 63.6406L52.8612 66.1208L59.4575 79.3109L86.4009 77.0597C86.8582 74.3053 86.4767 71.3984 85.1327 68.7108Z" fill="#399558"/>
<path d="M59.0119 40.433L60.0159 24.5744C60.0646 23.8046 59.2604 23.2718 58.5706 23.6168L39.9969 32.9054C39.3318 33.238 39.2495 34.1543 39.8446 34.6001L52.455 44.0457C53.5224 43.083 54.7137 42.2251 56.067 41.5483C57.02 41.0717 58.0017 40.6999 59.0119 40.433Z" fill="#399558"/>
<path d="M624.621 59.9062C624.58 60.3935 624.562 60.8615 624.565 61.3312L646.404 72.3125C649.584 70.0422 651.788 66.4305 652.144 62.2355L652.334 59.9896L625.723 46.6413L624.6 59.9045L624.621 59.9062Z" fill="#399558"/>
<path d="M641.524 23.9977C642.583 24.0874 643.612 24.2812 644.611 24.5791L653.709 11.6C654.152 10.9684 653.743 10.0946 652.975 10.0296L632.337 8.28299C631.596 8.22028 631.048 8.95949 631.324 9.65013L637.15 24.2464C638.559 23.9815 640.019 23.8704 641.524 23.9977Z" fill="#399558"/>
<path d="M637.235 74.8506C639.735 75.0622 642.123 74.5814 644.234 73.5865L624.871 63.8603C626.083 69.7031 631.006 74.3234 637.235 74.8506Z" fill="#399558"/>
<path d="M653.954 40.7491C654.415 33.2769 648.823 26.7434 641.343 26.1104C637.53 25.7876 633.945 27.042 631.232 29.3517L653.954 40.7491Z" fill="#399558"/>
<path d="M626.42 38.723L625.943 44.3588L652.554 57.7071L653.795 43.0456L629.681 30.9542C627.859 33.062 626.673 35.7356 626.42 38.723Z" fill="#399558"/>
<path d="M633.961 76.3836L624.863 89.3627C624.42 89.9943 624.829 90.8681 625.597 90.9331L646.235 92.6797C646.976 92.7424 647.524 92.0032 647.248 91.3126L641.422 76.7164C640.013 76.9812 638.553 77.0923 637.048 76.965C635.989 76.8753 634.96 76.6815 633.961 76.3836Z" fill="#399558"/>
<path fill-rule="evenodd" clip-rule="evenodd" d="M684.255 294.69C684.311 294.599 684.365 294.507 684.419 294.414C684.473 294.322 684.526 294.229 684.579 294.135L684.255 294.69ZM683.005 296.51C681.825 296.363 674.879 295.3 665.253 289.689C655.644 284.088 651.294 278.578 650.573 277.609C646.975 286.235 650.229 296.403 658.525 301.238C666.821 306.074 677.274 303.893 683.005 296.51ZM684.946 293.448C684.42 293.397 677.366 292.624 667.048 286.61C656.766 280.616 652.609 274.879 652.28 274.411C657.781 266.104 668.878 263.439 677.595 268.519C686.311 273.6 689.462 284.568 684.946 293.448Z" fill="#399558"/>
<rect x="656.438" y="302.601" width="2.2277" height="37.8709" rx="1" transform="rotate(30.2362 656.438 302.601)" fill="#399558"/>
<path fill-rule="evenodd" clip-rule="evenodd" d="M843.004 73.775C843.079 73.862 843.154 73.9485 843.231 74.0345C843.307 74.1205 843.384 74.2056 843.462 74.29L843.004 73.775ZM841.639 71.9876C842.158 70.8849 845.411 64.4533 853.951 56.8597C862.476 49.2804 869.234 46.798 870.409 46.4044C863.149 40.1452 852.199 40.0736 844.84 46.6169C837.48 53.1609 836.271 64.0456 841.639 71.9876ZM844.005 74.8566C844.221 74.3616 847.225 67.7319 856.38 59.5917C865.501 51.4822 872.418 49.2608 872.982 49.089C879.324 57.1004 878.381 68.768 870.648 75.6436C862.916 82.5187 851.22 82.0911 844.005 74.8566Z" fill="#399558"/>
<rect x="844.178" y="44.1483" width="2.28477" height="38.841" rx="1" transform="rotate(138.359 844.178 44.1483)" fill="#399558"/>
<path d="M856.541 292.337C856.072 292.444 855.629 292.566 855.19 292.708L851.401 316.418C854.472 318.72 858.509 319.711 862.542 318.796L864.701 318.306L869.287 289.425L856.536 292.317L856.541 292.337Z" fill="#399558"/>
<path d="M895.183 297.487C895.414 298.505 895.539 299.526 895.557 300.55L910.383 305.2C911.119 305.431 911.828 304.777 911.657 304.025L907.171 284.243C907.006 283.517 906.136 283.219 905.561 283.691L893.65 293.466C894.317 294.707 894.855 296.041 895.183 297.487Z" fill="#399558"/>
<path d="M846.3 308.588C846.845 310.992 848.005 313.084 849.564 314.765L852.913 293.746C847.804 296.618 844.941 302.6 846.3 308.588Z" fill="#399558"/>
<path d="M883.195 314.103C890.328 312.314 894.782 305.136 893.151 297.946C892.32 294.28 890.08 291.297 887.111 289.443L883.195 314.103Z" fill="#399558"/>
<path d="M876.908 287.724L871.49 288.953L866.904 317.834L880.998 314.637L885.15 288.468C882.635 287.389 879.78 287.073 876.908 287.724Z" fill="#399558"/>
<path d="M843.892 305.979L829.066 301.329C828.33 301.098 827.621 301.752 827.791 302.505L832.278 322.287C832.442 323.012 833.313 323.31 833.888 322.839L845.798 313.064C845.132 311.823 844.593 310.489 844.265 309.043C844.034 308.024 843.91 307.003 843.892 305.979Z" fill="#399558"/>
<path d="M252.021 284.108C251.574 283.917 251.138 283.753 250.694 283.608L233.482 300.776C234.627 304.489 237.344 307.702 241.192 309.353L243.252 310.236L264.195 289.308L252.03 284.089L252.021 284.108Z" fill="#399558"/>
<path d="M280.61 311.321C280.194 312.293 279.688 313.204 279.093 314.053L288.484 326.702C288.944 327.321 289.902 327.209 290.206 326.5L298.319 307.587C298.612 306.904 298.084 306.151 297.341 306.194L281.747 307.115C281.555 308.528 281.202 309.942 280.61 311.321Z" fill="#399558"/>
<path d="M233.962 291.326C232.978 293.619 232.683 296.024 232.96 298.328L248.211 283.104C242.317 282.416 236.413 285.612 233.962 291.326Z" fill="#399558"/>
<path d="M260.903 317.799C267.81 320.578 275.73 317.348 278.673 310.488C280.174 306.99 280.114 303.214 278.785 299.929L260.903 317.799Z" fill="#399558"/>
<path d="M271.449 292.449L266.28 290.231L245.337 311.16L258.785 316.929L277.759 297.963C276.341 295.583 274.19 293.624 271.449 292.449Z" fill="#399558"/>
<path d="M233.541 287.756L224.151 275.107C223.691 274.487 222.733 274.6 222.429 275.309L214.316 294.222C214.022 294.905 214.551 295.658 215.294 295.614L230.887 294.694C231.079 293.28 231.433 291.867 232.024 290.487C232.441 289.516 232.947 288.605 233.541 287.756Z" fill="#399558"/>
</svg>
