<svg width="134" height="222" viewBox="0 0 134 222" fill="none" xmlns="http://www.w3.org/2000/svg">
<path d="M70.3265 218.708C70.3265 220.39 68.8354 221.75 66.9983 221.75C65.1612 221.75 63.6702 220.39 63.6735 218.705V199.667C62.7703 199.67 61.8672 199.666 60.9652 199.661C59.6701 199.655 58.3773 199.649 57.0904 199.667C37.6606 199.922 12.4898 198.307 3.15767 188.791C0.861244 186.443 -0.193782 183.483 0.0292042 179.994C0.791351 168.075 17.0061 151.791 26.7909 142.99C25.1002 142.71 23.4428 142.242 21.9085 141.579C17.9746 139.884 15.2355 137.098 14.1905 133.739C12.8692 129.487 14.2937 125.41 15.7348 121.924C16.8031 119.332 18.0478 116.804 19.439 114.407C21.2229 111.332 23.6225 107.307 26.3449 103.465C30.0026 98.3025 34.3059 93.2527 38.6058 88.3368C34.0629 88.2364 29.4601 86.8796 26.1785 83.3448C23.2897 80.2358 22.2812 75.8157 23.4095 71.2222C24.9737 64.8674 28.8543 59.1361 33.0312 53.338C35.92 49.3225 38.4461 46.0797 40.9788 43.1228C48.111 34.8058 54.9071 27.5171 61.7498 20.8459C64.4489 18.2145 69.551 18.2145 72.2535 20.8459C79.0961 27.5171 85.8889 34.8058 93.0245 43.1228C95.5572 46.0766 98.0799 49.3225 100.972 53.338C105.149 59.1361 109.03 64.8674 110.594 71.2222C111.722 75.8126 110.714 80.2358 107.821 83.3448C104.543 86.8796 99.9404 88.2394 95.3974 88.3368C99.6974 93.2557 104.001 98.3056 107.658 103.468C110.381 107.307 112.777 111.332 114.564 114.407C115.955 116.804 117.2 119.332 118.268 121.924C119.71 125.413 121.134 129.49 119.813 133.739C118.768 137.098 116.029 139.881 112.095 141.579C110.557 142.242 108.9 142.71 107.209 142.99C116.997 151.791 133.209 168.075 133.971 179.994C134.194 183.486 133.142 186.443 130.842 188.788C122.142 197.662 99.6941 199.697 80.9299 199.697C79.5654 199.697 78.2275 199.685 76.9095 199.667C75.6203 199.649 74.3265 199.655 73.0314 199.661C72.13 199.666 71.2279 199.67 70.3265 199.667V218.708Z" fill="#399558"/>
<ellipse cx="88.5358" cy="68.4122" rx="7.17857" ry="7.07713" fill="#FEDE35"/>
<ellipse cx="59.8214" cy="101.439" rx="7.17857" ry="7.07713" fill="#FEDE35"/>
<ellipse cx="69.3929" cy="139.184" rx="7.17857" ry="7.07713" fill="#FEDE35"/>
<ellipse cx="93.3214" cy="125.029" rx="7.17857" ry="7.07713" fill="#B4FFB2"/>
<ellipse cx="59.8214" cy="162.774" rx="7.17857" ry="7.07713" fill="#B4FFB2"/>
<ellipse cx="112.464" cy="172.21" rx="7.17857" ry="7.07713" fill="#B4FFB2"/>
<ellipse cx="40.6786" cy="125.029" rx="7.17857" ry="7.07713" fill="#A2D2FF"/>
<ellipse cx="69.3929" cy="44.8218" rx="7.17857" ry="7.07713" fill="#A2D2FF"/>
<ellipse cx="78.9642" cy="181.646" rx="7.17857" ry="7.07713" fill="#A2D2FF"/>
<ellipse cx="66.9999" cy="9.43617" rx="9.57143" ry="9.43617" fill="#D22237"/>
<ellipse cx="50.2501" cy="68.4122" rx="7.17857" ry="7.07713" fill="#B4FFB3"/>
<ellipse cx="26.3214" cy="176.928" rx="7.17857" ry="7.07713" fill="#B4FFB2"/>
</svg>
